<svg width="505" height="300" viewBox="0 0 505 300" fill="none" xmlns="http://www.w3.org/2000/svg">
<path fill-rule="evenodd" clip-rule="evenodd" d="M47.5374 174.597C45.8383 165.655 44.9492 156.427 44.9492 146.991C44.9492 65.8102 110.759 0 191.94 0C249.589 0 299.486 33.1859 323.57 81.4959C336.818 71.9559 353.078 66.3364 370.65 66.3364C415.194 66.3364 451.305 102.447 451.305 146.991C451.305 156.018 449.822 164.699 447.086 172.803C479.527 175.71 504.954 202.968 504.954 236.165C504.954 271.3 476.471 299.782 441.336 299.782H63.6177C28.4826 299.782 0 271.3 0 236.165C0 206.585 20.1879 181.72 47.5374 174.597Z" fill="#F0F9FF"/>
</svg>
