<svg width="708" height="421" viewBox="0 0 708 421" fill="none" xmlns="http://www.w3.org/2000/svg">
<path fill-rule="evenodd" clip-rule="evenodd" d="M188.134 93.1609C212.782 93.1609 235.589 101.033 254.169 114.396C287.878 46.5903 357.812 0 438.617 0C552.331 0 644.514 92.2641 644.514 206.078C644.514 219.26 643.277 232.152 640.914 244.646C679.271 254.617 707.588 289.48 707.588 330.957C707.588 380.206 667.664 420.13 618.414 420.13H89.1735C39.9243 420.13 0 380.206 0 330.957C0 284.486 35.5469 246.318 80.9331 242.159C77.109 230.829 75.0362 218.695 75.0362 206.078C75.0362 143.715 125.672 93.1609 188.134 93.1609Z" fill="#DBF2FF"/>
</svg>
