<svg width="519" height="308" viewBox="0 0 519 308" fill="none" xmlns="http://www.w3.org/2000/svg">
<path fill-rule="evenodd" clip-rule="evenodd" d="M138.502 68.1531C156.534 68.1531 173.219 73.9122 186.811 83.6886C211.472 34.0841 262.633 0 321.748 0C404.936 0 472.374 67.4971 472.374 150.759C472.374 160.402 471.47 169.834 469.741 178.974C497.8 186.269 518.516 211.773 518.516 242.116C518.516 278.145 489.309 307.352 453.28 307.352H66.1062C30.0773 307.352 0.870117 278.145 0.870117 242.116C0.870117 208.12 26.8747 180.197 60.0775 177.155C57.2799 168.866 55.7635 159.989 55.7635 150.759C55.7635 105.137 92.8068 68.1531 138.502 68.1531Z" fill="#DBF2FF"/>
</svg>
