<svg width="384" height="228" viewBox="0 0 384 228" fill="none" xmlns="http://www.w3.org/2000/svg">
<path fill-rule="evenodd" clip-rule="evenodd" d="M102.326 50.9225C115.674 50.9225 128.025 55.1856 138.088 62.4226C156.343 25.701 194.218 0.469116 237.98 0.469116C299.564 0.469116 349.487 50.4368 349.487 112.075C349.487 119.214 348.818 126.196 347.538 132.962C368.311 138.362 383.647 157.243 383.647 179.706C383.647 206.378 362.025 228 335.354 228H48.7314C22.0594 228 0.4375 206.378 0.4375 179.706C0.4375 154.539 19.6886 133.868 44.2684 131.616C42.1973 125.48 41.0747 118.908 41.0747 112.075C41.0747 78.3014 68.4976 50.9225 102.326 50.9225Z" fill="#C1E8FF"/>
</svg>
