<svg width="582" height="346" viewBox="0 0 582 346" fill="none" xmlns="http://www.w3.org/2000/svg">
<path fill-rule="evenodd" clip-rule="evenodd" d="M54.7089 201.757C52.7536 191.467 51.7304 180.846 51.7304 169.987C51.7304 76.5585 127.469 0.819824 220.897 0.819824C287.242 0.819824 344.667 39.0122 372.385 94.6104C387.632 83.6312 406.344 77.164 426.567 77.164C477.832 77.164 519.39 118.722 519.39 169.987C519.39 180.376 517.683 190.366 514.535 199.693C551.87 203.038 581.133 234.408 581.133 272.613C581.133 313.049 548.354 345.829 507.918 345.829H73.2154C32.7797 345.829 0 313.049 0 272.613C0 238.571 23.2335 209.955 54.7089 201.757Z" fill="#8AD3FF"/>
</svg>
