<svg width="371" height="220" viewBox="0 0 371 220" fill="none" xmlns="http://www.w3.org/2000/svg">
<path fill-rule="evenodd" clip-rule="evenodd" d="M35.5237 127.921C34.2808 121.379 33.6304 114.628 33.6304 107.726C33.6304 48.3364 81.7747 0.192017 141.164 0.192017C183.337 0.192017 219.84 24.4694 237.459 59.8111C247.151 52.8321 259.046 48.7212 271.901 48.7212C304.488 48.7212 330.905 75.1383 330.905 107.725C330.905 114.33 329.82 120.68 327.819 126.609C351.551 128.735 370.152 148.676 370.152 172.962C370.152 198.665 349.315 219.502 323.612 219.502H47.2865C21.5829 219.502 0.746094 198.665 0.746094 172.962C0.746094 151.322 15.5153 133.131 35.5237 127.921Z" fill="#F0F9FF"/>
</svg>
