<svg width="344" height="100" viewBox="0 0 344 100" fill="none" xmlns="http://www.w3.org/2000/svg">
<path d="M276.758 1.36438C255.546 1.36437 238.35 18.669 238.35 40.0155C238.355 42.3251 238.565 44.6295 238.979 46.9014C231.954 52.2842 227.431 60.7897 227.431 70.4008C227.431 86.7529 240.513 99.9171 256.762 99.9171H313.928C330.177 99.9171 343.258 86.7529 343.258 70.4008C343.258 60.8398 338.782 52.3744 331.819 46.9869C333.927 43.8642 335.054 40.1766 335.055 36.4016C335.055 25.9915 326.669 17.5526 316.325 17.5525C313.817 17.5592 311.336 18.0726 309.029 19.0625C301.956 8.03087 289.804 1.36588 276.758 1.36438Z" fill="#009FFF"/>
<path opacity="0.253333" d="M267.909 30.3997L258.794 33.6858L256.22 36.8007L256.56 73.8258L286.048 99.773C308.379 97.4141 326.218 84.1 330.527 62.2761L300.308 31.8768L287.853 30.9241L282.694 35.9337L280.46 41.1251L279.077 39.4017L275.472 32.4762L267.909 30.3997Z" fill="url(#paint0_linear)"/>
<path opacity="0.271111" d="M313.785 55.0548L317.955 64.3885C317.955 64.3885 317.602 73.1364 315.819 75.8954C314.036 78.6544 314.456 76.005 309.366 80.4426C304.275 84.8799 299.796 80.9189 299.796 80.9189L290.942 77.5453L290.415 74.9957L288.02 66.127L289.653 58.4284L293.607 54.1034L299.366 52.3731L305.985 52.2002L311.715 54.3174L313.785 55.0548Z" fill="url(#paint1_radial)"/>
<path d="M255.461 24.113C255.306 24.1169 255.075 24.1247 254.847 24.1752C254.731 24.2024 254.615 24.2335 254.496 24.3112C254.376 24.3889 254.226 24.5598 254.226 24.7734C254.226 25.026 254.222 25.8728 254.218 26.2846C254.195 26.2846 254.195 26.2846 254.171 26.2846C254.059 26.2885 253.951 26.2924 253.843 26.3118C253.789 26.3196 253.739 26.3274 253.666 26.3585C253.631 26.374 253.585 26.3934 253.531 26.4439C253.473 26.4944 253.399 26.6071 253.399 26.7392C253.395 26.8014 253.396 26.8246 253.396 26.9179C253.396 27.0228 253.392 27.1664 253.392 27.3335C253.392 27.6676 253.388 28.1066 253.384 28.5417C253.38 29.408 253.38 30.2627 253.38 30.2627C253.38 30.4647 253.538 30.6317 253.739 30.6434L253.921 30.6512L253.89 69.1578C253.89 69.2005 253.901 69.2471 253.917 69.286C253.917 69.286 253.994 69.4996 254.075 69.6938C254.106 69.7715 254.137 69.826 254.202 69.962C254.268 70.0979 254.361 70.2805 254.469 70.4941C254.681 70.9215 254.959 71.4731 255.233 72.0208C255.507 72.5647 255.781 73.1047 255.982 73.5088C256.187 73.9128 256.322 74.1808 256.322 74.1808L257.001 74.1653L259.016 69.7327L258.989 69.7832C258.989 69.7832 259.028 69.7094 259.043 69.6628C259.059 69.6201 259.07 69.5695 259.082 69.4996C259.101 69.3597 259.12 69.1499 259.124 68.8042C259.124 68.8042 259.124 68.8043 259.124 68.8004C259.124 68.3148 259.221 47.8882 259.267 38.1139C260.614 34.874 263.197 32.2983 268.629 32.2983C273.099 32.2983 275.542 34.9168 276.936 37.5934C278.334 40.2662 278.607 42.9506 278.607 42.9506C278.627 43.1449 278.789 43.2925 278.982 43.2925H281.561C281.746 43.2925 281.904 43.1565 281.931 42.97C281.931 42.97 282.344 40.2778 283.831 37.5934C285.317 34.9051 287.811 32.279 292.08 32.279C297.153 32.279 299.577 34.6875 300.847 37.7643C302.117 40.8411 302.14 44.6094 302.14 47.1462V50.6425C301.963 50.6425 301.793 50.6387 301.608 50.6425C296.898 50.7979 291.717 52.1849 288.872 56.7418C288.872 56.7457 288.872 56.7457 288.872 56.7457C287.436 59.0844 286.765 60.9335 286.765 64.562C286.726 65.1447 286.765 66.0072 286.765 66.5627C286.765 73.299 289.613 77.2771 293.014 79.5303C296.415 81.7835 300.337 82.3468 302.565 82.4517C304.8 82.5566 308.556 82.308 311.876 80.7307C315.196 79.1535 318.08 76.1855 318.369 71.0147C318.381 70.8088 318.223 70.6301 318.014 70.6185C318.01 70.6146 318.003 70.6146 317.995 70.6146H315.694C315.493 70.6146 315.331 70.7738 315.32 70.972C315.119 74.5382 312.903 76.6361 310.22 77.887C307.537 79.134 304.399 79.4643 302.6 79.3827C300.782 79.2972 297.55 78.8193 294.813 77.0051C292.142 75.2375 289.922 72.219 289.818 66.9279L317.995 66.9434C318.203 66.9434 318.369 66.7725 318.369 66.5627C318.369 61.1744 316.678 57.3828 314.123 54.8732C311.652 52.449 308.402 51.2447 305.144 50.8368V47.1501C305.144 43.9917 305.121 39.4193 303.461 35.5811C301.801 31.7429 298.427 28.6699 291.999 28.6699C286.058 28.6699 282.939 31.568 281.391 34.4467C280.762 35.616 280.422 36.7388 280.19 37.7139C279.974 36.7427 279.654 35.6316 279.048 34.4661C277.55 31.5952 274.496 28.701 268.613 28.701C264.297 28.701 261.348 29.9209 259.302 31.7662C259.306 31.265 259.306 30.9425 259.306 30.6628C259.367 30.6628 259.425 30.6628 259.495 30.6512C259.545 30.6434 259.599 30.6318 259.676 30.589C259.754 30.5463 259.893 30.422 259.896 30.2394C259.9 30.1734 259.9 30.1423 259.9 30.0452C259.9 29.9403 259.904 29.7965 259.904 29.6295C259.904 29.2954 259.908 28.8603 259.912 28.429C259.916 27.5666 259.916 26.7159 259.916 26.7159C259.916 26.5061 259.75 26.339 259.541 26.339C259.537 26.339 259.537 26.339 259.534 26.339C259.534 26.339 259.344 26.3429 259.151 26.3429C259.128 26.3429 259.113 26.3429 259.09 26.3429C259.086 26.1953 259.086 26.0205 259.086 25.834C259.086 25.4067 259.093 24.9755 259.093 24.8939V24.89C259.093 24.5676 258.912 24.4433 258.715 24.3189C258.514 24.1985 258.248 24.1169 257.924 24.1169C257.406 24.1169 255.631 24.113 255.631 24.113H255.654C255.654 24.113 255.573 24.113 255.496 24.113C255.484 24.113 255.476 24.113 255.465 24.113H255.461ZM302.893 53.6844C307.07 53.6844 310.154 54.8537 312.204 56.7689C314.165 58.6065 315.177 61.155 315.281 64.1036H289.903C289.969 61.2094 290.725 58.6687 292.613 56.8234C294.589 54.9004 297.824 53.6844 302.893 53.6844Z" fill="white"/>
<path d="M12.1992 23.8125L31.0781 68.9883L50.0273 23.8125H55.793V75H51.4688V52.7109L51.8203 29.8594L32.7656 75H29.4258L10.4414 30.0352L10.793 52.5703V75H6.46875V23.8125H12.1992ZM82.5117 75.7031C79.2773 75.7031 76.3477 74.9062 73.7227 73.3125C71.1211 71.7188 69.0938 69.5039 67.6406 66.668C66.1875 63.8086 65.4609 60.6094 65.4609 57.0703V55.5586C65.4609 51.9023 66.1641 48.6094 67.5703 45.6797C69 42.75 70.9805 40.4531 73.5117 38.7891C76.043 37.1016 78.7852 36.2578 81.7383 36.2578C86.3555 36.2578 90.0117 37.8398 92.707 41.0039C95.4258 44.1445 96.7852 48.4453 96.7852 53.9062V56.2617H69.6445V57.0703C69.6445 61.3828 70.875 64.9805 73.3359 67.8633C75.8203 70.7227 78.9375 72.1523 82.6875 72.1523C84.9375 72.1523 86.918 71.7422 88.6289 70.9219C90.3633 70.1016 91.9336 68.7891 93.3398 66.9844L95.9766 68.9883C92.8828 73.4648 88.3945 75.7031 82.5117 75.7031ZM81.7383 39.8438C78.5742 39.8438 75.9023 41.0039 73.7227 43.3242C71.5664 45.6445 70.2539 48.7617 69.7852 52.6758H92.6016V52.2188C92.4844 48.5625 91.4414 45.5859 89.4727 43.2891C87.5039 40.9922 84.9258 39.8438 81.7383 39.8438ZM108.809 36.9609L108.949 43.1484C110.355 40.8516 112.113 39.1289 114.223 37.9805C116.332 36.832 118.676 36.2578 121.254 36.2578C127.254 36.2578 131.062 38.7188 132.68 43.6406C134.039 41.2734 135.855 39.457 138.129 38.1914C140.402 36.9023 142.91 36.2578 145.652 36.2578C153.809 36.2578 157.969 40.7109 158.133 49.6172V75H153.914V49.9336C153.891 46.5352 153.152 44.0156 151.699 42.375C150.27 40.7344 147.926 39.9141 144.668 39.9141C141.645 39.9609 139.09 40.9453 137.004 42.8672C134.918 44.7656 133.758 47.0859 133.523 49.8281V75H129.305V49.6172C129.281 46.3594 128.508 43.9336 126.984 42.3398C125.484 40.7227 123.164 39.9141 120.023 39.9141C117.375 39.9141 115.102 40.6758 113.203 42.1992C111.305 43.6992 109.898 45.9375 108.984 48.9141V75H104.766V36.9609H108.809ZM166.5 55.418C166.5 51.7617 167.203 48.4688 168.609 45.5391C170.039 42.6094 172.043 40.3359 174.621 38.7188C177.223 37.0781 180.164 36.2578 183.445 36.2578C188.508 36.2578 192.609 38.0391 195.75 41.6016C198.891 45.1406 200.461 49.8398 200.461 55.6992V56.5781C200.461 60.2578 199.746 63.5742 198.316 66.5273C196.91 69.457 194.918 71.7188 192.34 73.3125C189.762 74.9062 186.82 75.7031 183.516 75.7031C178.477 75.7031 174.375 73.9336 171.211 70.3945C168.07 66.832 166.5 62.1211 166.5 56.2617V55.418ZM170.719 56.5781C170.719 61.125 171.891 64.8633 174.234 67.793C176.602 70.6992 179.695 72.1523 183.516 72.1523C187.312 72.1523 190.383 70.6992 192.727 67.793C195.094 64.8633 196.277 61.0078 196.277 56.2266V55.418C196.277 52.5117 195.738 49.8516 194.66 47.4375C193.582 45.0234 192.07 43.1602 190.125 41.8477C188.18 40.5117 185.953 39.8438 183.445 39.8438C179.695 39.8438 176.637 41.3203 174.27 44.2734C171.902 47.2031 170.719 51.0469 170.719 55.8047V56.5781ZM226.758 40.5469C225.867 40.3828 224.918 40.3008 223.91 40.3008C221.285 40.3008 219.059 41.0391 217.23 42.5156C215.426 43.9688 214.137 46.0898 213.363 48.8789V75H209.18V36.9609H213.293L213.363 43.0078C215.59 38.5078 219.164 36.2578 224.086 36.2578C225.258 36.2578 226.184 36.4102 226.863 36.7148L226.758 40.5469Z" fill="#009FFF"/>
<defs>
<linearGradient id="paint0_linear" x1="263.27" y1="37.7371" x2="289.177" y2="99.0737" gradientUnits="userSpaceOnUse">
<stop/>
<stop offset="1" stop-color="white" stop-opacity="0"/>
</linearGradient>
<radialGradient id="paint1_radial" cx="0" cy="0" r="1" gradientUnits="userSpaceOnUse" gradientTransform="translate(294.527 58.1693) rotate(90.5415) scale(29.2731 32.2448)">
<stop/>
<stop offset="1" stop-opacity="0"/>
</radialGradient>
</defs>
</svg>
