<svg width="516" height="439" viewBox="0 0 516 439" fill="none" xmlns="http://www.w3.org/2000/svg">
<path d="M220.175 0.0637207C125.909 0.0636864 49.4899 76.9659 49.4881 171.831C49.5092 182.094 50.4446 192.336 52.2826 202.432C21.0626 226.353 0.963257 264.152 0.963257 306.864C0.963257 379.533 59.1006 438.035 131.312 438.035H385.358C457.571 438.035 515.704 379.533 515.704 306.864C515.704 264.375 495.811 226.754 464.867 202.812C474.234 188.934 479.244 172.546 479.249 155.77C479.249 109.508 441.982 72.0046 396.01 72.0044C384.866 72.0339 373.838 74.3158 363.586 78.7146C332.157 29.6898 278.149 0.0704059 220.175 0.0637207Z" fill="#009FFF"/>
<path opacity="0.253333" d="M180.849 129.097L140.34 143.701L128.901 157.543L130.413 322.084L261.46 437.395C360.699 426.912 439.977 367.743 459.124 270.757L324.832 135.661L269.48 131.428L246.553 153.69L236.627 176.761L230.482 169.103L214.458 138.325L180.849 129.097Z" fill="url(#paint0_linear)"/>
<path opacity="0.271111" d="M384.726 238.665L403.255 280.145C403.255 280.145 401.686 319.021 393.763 331.282C385.841 343.543 387.707 331.769 365.084 351.49C342.461 371.209 322.557 353.606 322.557 353.606L283.211 338.614L280.866 327.283L270.224 287.871L277.481 253.658L295.053 234.437L320.646 226.748L350.059 225.979L375.527 235.389L384.726 238.665Z" fill="url(#paint1_radial)"/>
<path d="M125.529 101.159C124.842 101.176 123.813 101.211 122.801 101.435C122.286 101.556 121.772 101.694 121.24 102.04C120.708 102.385 120.039 103.144 120.039 104.094C120.039 105.216 120.022 108.98 120.005 110.81C119.902 110.81 119.902 110.81 119.799 110.81C119.301 110.827 118.821 110.844 118.341 110.931C118.1 110.965 117.877 111 117.551 111.138C117.397 111.207 117.191 111.293 116.951 111.518C116.693 111.742 116.368 112.243 116.368 112.83C116.351 113.106 116.351 113.21 116.351 113.624C116.351 114.09 116.333 114.729 116.333 115.471C116.333 116.956 116.316 118.907 116.299 120.84C116.282 124.69 116.282 128.488 116.282 128.488C116.282 129.386 116.985 130.128 117.877 130.18L118.684 130.215L118.547 301.339C118.547 301.529 118.598 301.737 118.666 301.909C118.666 301.909 119.01 302.858 119.37 303.722C119.507 304.067 119.645 304.309 119.936 304.913C120.228 305.518 120.64 306.329 121.12 307.278C122.063 309.177 123.299 311.629 124.517 314.063C125.735 316.48 126.953 318.88 127.845 320.675C128.754 322.471 129.354 323.662 129.354 323.662L132.374 323.593L141.329 303.895L141.209 304.119C141.209 304.119 141.381 303.791 141.449 303.584C141.518 303.394 141.57 303.169 141.621 302.858C141.707 302.237 141.792 301.305 141.81 299.768C141.81 299.768 141.81 299.768 141.81 299.751C141.81 297.593 142.239 206.817 142.445 163.38C148.432 148.981 159.909 137.535 184.047 137.535C203.913 137.535 214.773 149.171 220.966 161.066C227.176 172.944 228.393 184.874 228.393 184.874C228.479 185.737 229.2 186.393 230.058 186.393H241.518C242.342 186.393 243.045 185.789 243.165 184.96C243.165 184.96 245 172.996 251.605 161.066C258.21 149.119 269.293 137.449 288.267 137.449C310.809 137.449 321.583 148.153 327.227 161.826C332.871 175.499 332.975 192.246 332.975 203.519V219.057C332.185 219.057 331.43 219.04 330.606 219.057C309.677 219.748 286.654 225.911 274.011 246.163C274.011 246.18 274.011 246.18 274.011 246.18C267.629 256.573 264.644 264.791 264.644 280.916C264.472 283.505 264.644 287.338 264.644 289.807C264.644 319.743 277.304 337.422 292.419 347.435C307.533 357.449 324.962 359.952 334.861 360.418C344.794 360.884 361.487 359.779 376.24 352.77C390.994 345.761 403.809 332.571 405.096 309.592C405.147 308.677 404.444 307.883 403.518 307.831C403.501 307.814 403.467 307.814 403.432 307.814H393.208C392.315 307.814 391.595 308.521 391.543 309.402C390.651 325.25 380.804 334.573 368.881 340.132C356.958 345.674 343.01 347.142 335.016 346.779C326.936 346.4 312.576 344.276 300.412 336.213C288.541 328.358 278.676 314.944 278.213 291.43L403.432 291.499C404.359 291.499 405.096 290.739 405.096 289.807C405.096 265.861 397.582 249.011 386.225 237.858C375.245 227.085 360.801 221.733 346.321 219.92V203.537C346.321 189.501 346.219 169.181 338.842 152.124C331.465 135.066 316.471 121.41 287.907 121.41C261.504 121.41 247.643 134.289 240.763 147.082C237.967 152.279 236.457 157.268 235.427 161.602C234.467 157.286 233.043 152.348 230.349 147.169C223.693 134.41 210.123 121.548 183.978 121.548C164.798 121.548 151.691 126.969 142.599 135.17C142.616 132.943 142.615 131.51 142.615 130.267C142.89 130.267 143.148 130.267 143.457 130.215C143.68 130.18 143.92 130.129 144.263 129.939C144.606 129.749 145.224 129.197 145.241 128.385C145.258 128.092 145.258 127.954 145.258 127.522C145.258 127.056 145.275 126.417 145.275 125.674C145.275 124.19 145.292 122.256 145.309 120.34C145.327 116.507 145.326 112.726 145.326 112.726C145.326 111.794 144.589 111.052 143.663 111.052C143.645 111.052 143.645 111.052 143.628 111.052C143.628 111.052 142.787 111.069 141.929 111.069C141.826 111.069 141.758 111.069 141.656 111.069C141.638 110.413 141.638 109.636 141.638 108.807C141.638 106.908 141.672 104.992 141.672 104.629V104.612C141.672 103.179 140.866 102.627 139.991 102.074C139.099 101.539 137.916 101.176 136.474 101.176C134.176 101.176 126.283 101.159 126.283 101.159H126.386C126.386 101.159 126.027 101.159 125.684 101.159C125.632 101.159 125.598 101.159 125.546 101.159H125.529ZM336.319 232.575C354.882 232.575 368.589 237.772 377.699 246.283C386.414 254.449 390.908 265.775 391.371 278.878H278.591C278.883 266.017 282.245 254.726 290.634 246.525C299.418 237.979 313.794 232.575 336.319 232.575Z" fill="white"/>
<defs>
<linearGradient id="paint0_linear" x1="160.233" y1="161.705" x2="275.362" y2="434.287" gradientUnits="userSpaceOnUse">
<stop/>
<stop offset="1" stop-color="white" stop-opacity="0"/>
</linearGradient>
<radialGradient id="paint1_radial" cx="0" cy="0" r="1" gradientUnits="userSpaceOnUse" gradientTransform="translate(299.141 252.506) rotate(90.5415) scale(130.09 143.297)">
<stop/>
<stop offset="1" stop-opacity="0"/>
</radialGradient>
</defs>
</svg>
