<svg width="673" height="472" viewBox="0 0 673 472" fill="none" xmlns="http://www.w3.org/2000/svg">
<path fill-rule="evenodd" clip-rule="evenodd" d="M-47.2164 274.668C-49.8892 260.601 -51.2879 246.084 -51.2879 231.24C-51.2879 103.529 52.2418 -0.000488281 179.952 -0.000488281C270.642 -0.000488281 349.137 52.2061 387.026 128.205C407.867 113.197 433.446 104.357 461.09 104.357C531.166 104.357 587.973 161.164 587.973 231.24C587.973 245.441 585.64 259.097 581.336 271.846C632.371 276.418 672.371 319.299 672.371 371.523C672.371 426.796 627.564 471.604 572.291 471.604H-21.9194C-77.1924 471.604 -122 426.796 -122 371.523C-122 324.99 -90.2413 285.874 -47.2164 274.668Z" fill="#8AD3FF"/>
</svg>
