<svg width="524" height="312" viewBox="0 0 524 312" fill="none" xmlns="http://www.w3.org/2000/svg">
<path fill-rule="evenodd" clip-rule="evenodd" d="M139.275 68.9664C157.521 68.9664 174.405 74.794 188.16 84.6867C213.114 34.4905 264.886 0 324.706 0C408.887 0 477.13 68.3025 477.13 152.558C477.13 162.316 476.214 171.861 474.465 181.11C502.86 188.491 523.823 214.3 523.823 245.005C523.823 281.464 494.267 311.02 457.808 311.02H66.0145C29.5557 311.02 0 281.464 0 245.005C0 210.603 26.3151 182.347 59.9143 179.269C57.0833 170.881 55.5488 161.899 55.5488 152.558C55.5488 106.392 93.0341 68.9664 139.275 68.9664Z" fill="#C1E8FF"/>
</svg>
