<svg width="500" height="500" viewBox="0 0 500 500" fill="none" xmlns="http://www.w3.org/2000/svg">
<path d="M0 100C0 44.7715 44.7715 0 100 0H400C455.228 0 500 44.7715 500 100V400C500 455.228 455.228 500 400 500H100C44.7715 500 0 455.228 0 400V100Z" fill="white"/>
<path d="M219.154 79.7754C144.912 79.7754 84.7265 140.341 84.7252 215.054C84.7418 223.138 85.4784 231.203 86.926 239.155C62.338 257.995 46.5083 287.764 46.5083 321.403C46.5083 378.635 92.2957 424.71 149.168 424.71H349.247C406.12 424.71 451.904 378.635 451.904 321.403C451.904 287.939 436.237 258.31 411.867 239.454C419.244 228.525 423.189 215.618 423.193 202.406C423.193 165.97 393.842 136.434 357.636 136.434C348.859 136.457 340.174 138.254 332.1 141.719C307.347 103.108 264.813 79.7807 219.154 79.7754Z" fill="#009FFF"/>
<path opacity="0.253333" d="M188.181 181.399L156.277 192.9L147.268 203.802L148.46 333.39L251.668 424.206C329.827 415.95 392.264 369.35 407.344 292.967L301.579 186.569L257.985 183.235L239.928 200.768L232.111 218.938L227.271 212.906L214.651 188.667L188.181 181.399Z" fill="url(#paint0_linear)"/>
<path opacity="0.271111" d="M348.749 267.692L363.342 300.36C363.342 300.36 362.106 330.977 355.866 340.634C349.627 350.29 351.097 341.017 333.279 356.549C315.462 372.08 299.786 358.216 299.786 358.216L268.798 346.409L266.951 337.485L258.57 306.444L264.286 279.499L278.125 264.362L298.281 258.306L321.446 257.701L341.504 265.111L348.749 267.692Z" fill="url(#paint1_radial)"/>
<path d="M144.613 159.396C144.072 159.409 143.262 159.436 142.465 159.613C142.059 159.708 141.654 159.817 141.235 160.089C140.816 160.361 140.289 160.959 140.289 161.707C140.289 162.591 140.276 165.555 140.262 166.996C140.181 166.996 140.181 166.996 140.1 166.996C139.708 167.01 139.33 167.024 138.952 167.092C138.762 167.119 138.587 167.146 138.33 167.255C138.208 167.309 138.046 167.377 137.857 167.554C137.654 167.731 137.398 168.125 137.398 168.587C137.384 168.805 137.385 168.886 137.385 169.213C137.385 169.58 137.371 170.083 137.371 170.667C137.371 171.837 137.357 173.373 137.344 174.896C137.33 177.928 137.331 180.919 137.331 180.919C137.331 181.627 137.884 182.211 138.587 182.252L139.222 182.279L139.114 317.052C139.114 317.202 139.154 317.365 139.208 317.501C139.208 317.501 139.479 318.249 139.762 318.928C139.87 319.2 139.979 319.391 140.208 319.867C140.438 320.343 140.762 320.982 141.141 321.73C141.884 323.225 142.856 325.156 143.816 327.073C144.775 328.977 145.734 330.867 146.437 332.281C147.153 333.695 147.626 334.633 147.626 334.633L150.004 334.579L157.056 319.065L156.962 319.241C156.962 319.241 157.097 318.983 157.151 318.82C157.206 318.67 157.246 318.493 157.287 318.249C157.354 317.759 157.422 317.025 157.435 315.815C157.435 315.815 157.435 315.815 157.435 315.801C157.435 314.102 157.773 242.609 157.935 208.399C162.651 197.059 171.69 188.044 190.7 188.044C206.346 188.044 214.899 197.209 219.776 206.577C224.667 215.932 225.626 225.327 225.626 225.327C225.694 226.007 226.261 226.524 226.937 226.524H235.963C236.611 226.524 237.165 226.048 237.26 225.395C237.26 225.395 238.705 215.973 243.907 206.577C249.109 197.168 257.838 187.977 272.781 187.977C290.535 187.977 299.02 196.406 303.465 207.175C307.91 217.944 307.991 231.133 307.991 240.012V252.249C307.37 252.249 306.775 252.235 306.126 252.249C289.643 252.793 271.511 257.647 261.553 273.596C261.553 273.61 261.553 273.61 261.553 273.61C256.527 281.795 254.176 288.267 254.176 300.967C254.041 303.007 254.176 306.025 254.176 307.97C254.176 331.547 264.147 345.47 276.051 353.356C287.954 361.242 301.681 363.214 309.477 363.581C317.3 363.948 330.447 363.078 342.066 357.558C353.686 352.037 363.779 341.649 364.792 323.552C364.833 322.831 364.279 322.206 363.549 322.165C363.536 322.151 363.509 322.151 363.482 322.151H355.429C354.727 322.151 354.159 322.708 354.118 323.402C353.416 335.884 345.66 343.226 336.27 347.605C326.88 351.969 315.895 353.125 309.599 352.84C303.235 352.54 291.926 350.868 282.346 344.518C272.997 338.331 265.228 327.767 264.863 309.248L363.482 309.302C364.212 309.302 364.792 308.704 364.792 307.97C364.792 289.111 358.874 275.84 349.93 267.056C341.283 258.572 329.906 254.357 318.503 252.929V240.025C318.503 228.971 318.422 212.968 312.612 199.534C306.802 186.1 294.994 175.345 272.497 175.345C251.703 175.345 240.786 185.488 235.368 195.563C233.166 199.656 231.977 203.586 231.166 206.999C230.409 203.599 229.288 199.711 227.167 195.631C221.924 185.583 211.237 175.453 190.646 175.453C175.54 175.453 165.218 179.723 158.057 186.182C158.07 184.428 158.07 183.299 158.07 182.32C158.286 182.32 158.489 182.32 158.732 182.279C158.908 182.252 159.097 182.211 159.368 182.062C159.638 181.912 160.124 181.477 160.137 180.838C160.151 180.607 160.151 180.498 160.151 180.158C160.151 179.791 160.164 179.288 160.164 178.703C160.164 177.534 160.178 176.011 160.192 174.502C160.205 171.483 160.205 168.506 160.205 168.506C160.205 167.771 159.624 167.187 158.894 167.187C158.881 167.187 158.881 167.187 158.867 167.187C158.867 167.187 158.205 167.2 157.53 167.2C157.448 167.2 157.395 167.2 157.314 167.2C157.3 166.684 157.3 166.072 157.3 165.419C157.3 163.923 157.327 162.414 157.327 162.129V162.115C157.327 160.987 156.692 160.552 156.003 160.116C155.3 159.695 154.368 159.409 153.233 159.409C151.423 159.409 145.207 159.396 145.207 159.396H145.288C145.288 159.396 145.005 159.396 144.735 159.396C144.694 159.396 144.667 159.396 144.627 159.396H144.613ZM310.626 262.896C325.245 262.896 336.041 266.988 343.215 273.691C350.079 280.123 353.618 289.043 353.983 299.363H265.16C265.39 289.233 268.038 280.341 274.645 273.882C281.563 267.151 292.885 262.896 310.626 262.896Z" fill="white"/>
<defs>
<linearGradient id="paint0_linear" x1="171.945" y1="207.08" x2="262.618" y2="421.758" gradientUnits="userSpaceOnUse">
<stop/>
<stop offset="1" stop-color="white" stop-opacity="0"/>
</linearGradient>
<radialGradient id="paint1_radial" cx="0" cy="0" r="1" gradientUnits="userSpaceOnUse" gradientTransform="translate(281.344 278.593) rotate(90.5415) scale(102.456 112.857)">
<stop/>
<stop offset="1" stop-opacity="0"/>
</radialGradient>
</defs>
</svg>
