<svg width="1164" height="447" viewBox="0 0 1164 447" fill="none" xmlns="http://www.w3.org/2000/svg">
<path fill-rule="evenodd" clip-rule="evenodd" d="M549.502 68.1531C567.534 68.1531 584.218 73.9122 597.811 83.6886C622.471 34.0841 673.633 0 732.747 0C815.936 0 883.374 67.4971 883.374 150.759C883.374 160.402 882.469 169.834 880.74 178.974C908.8 186.269 929.516 211.773 929.516 242.116C929.516 278.145 900.309 307.352 864.28 307.352H477.106C441.077 307.352 411.87 278.145 411.87 242.116C411.87 208.12 437.874 180.197 471.077 177.155C468.28 168.866 466.763 159.989 466.763 150.759C466.763 105.137 503.807 68.1531 549.502 68.1531Z" fill="#DBF2FF"/>
<path fill-rule="evenodd" clip-rule="evenodd" d="M828.524 268.921C827.281 262.379 826.63 255.628 826.63 248.726C826.63 189.336 874.775 141.192 934.164 141.192C976.337 141.192 1012.84 165.469 1030.46 200.811C1040.15 193.832 1052.05 189.721 1064.9 189.721C1097.49 189.721 1123.9 216.138 1123.9 248.725C1123.9 255.33 1122.82 261.68 1120.82 267.609C1144.55 269.735 1163.15 289.676 1163.15 313.962C1163.15 339.665 1142.32 360.502 1116.61 360.502H840.286C814.583 360.502 793.746 339.665 793.746 313.962C793.746 292.322 808.515 274.131 828.524 268.921Z" fill="#F0F9FF"/>
<path fill-rule="evenodd" clip-rule="evenodd" d="M54.7089 247.757C52.7536 237.467 51.7304 226.846 51.7304 215.987C51.7304 122.558 127.469 46.8198 220.897 46.8198C287.242 46.8198 344.667 85.0122 372.385 140.61C387.632 129.631 406.344 123.164 426.567 123.164C477.832 123.164 519.39 164.722 519.39 215.987C519.39 226.376 517.683 236.366 514.535 245.693C551.87 249.038 581.133 280.408 581.133 318.613C581.133 359.049 548.354 391.829 507.918 391.829H73.2154C32.7797 391.829 0 359.049 0 318.613C0 284.571 23.2335 255.955 54.7089 247.757Z" fill="#8AD3FF"/>
<path fill-rule="evenodd" clip-rule="evenodd" d="M610.325 269.922C623.674 269.922 636.025 274.186 646.087 281.423C664.343 244.701 702.217 219.469 745.979 219.469C807.563 219.469 857.487 269.437 857.487 331.075C857.487 338.214 856.818 345.196 855.538 351.962C876.311 357.362 891.647 376.243 891.647 398.706C891.647 425.378 870.025 447 843.353 447H556.731C530.059 447 508.437 425.378 508.437 398.706C508.437 373.539 527.688 352.868 552.268 350.616C550.197 344.48 549.075 337.908 549.075 331.075C549.075 297.301 576.497 269.922 610.325 269.922Z" fill="#C1E8FF"/>
</svg>
