<svg width="1500" height="445" viewBox="0 0 1500 445" fill="none" xmlns="http://www.w3.org/2000/svg">
<g clip-path="url(#clip0)">
<path d="M1201.18 6.06372C1106.91 6.06369 1030.49 82.9659 1030.49 177.831C1030.51 188.094 1031.44 198.336 1033.28 208.432C1002.06 232.353 981.963 270.152 981.963 312.864C981.963 385.533 1040.1 444.035 1112.31 444.035H1366.36C1438.57 444.035 1496.7 385.533 1496.7 312.864C1496.7 270.375 1476.81 232.754 1445.87 208.812C1455.23 194.934 1460.24 178.546 1460.25 161.77C1460.25 115.508 1422.98 78.0046 1377.01 78.0044C1365.87 78.0339 1354.84 80.3158 1344.59 84.7146C1313.16 35.6898 1259.15 6.07041 1201.18 6.06372Z" fill="#009FFF"/>
<path opacity="0.253333" d="M1161.85 135.097L1121.34 149.701L1109.9 163.543L1111.41 328.084L1242.46 443.395C1341.7 432.912 1420.98 373.743 1440.12 276.757L1305.83 141.661L1250.48 137.428L1227.55 159.69L1217.63 182.761L1211.48 175.103L1195.46 144.325L1161.85 135.097Z" fill="url(#paint0_linear)"/>
<path opacity="0.271111" d="M1365.73 244.665L1384.26 286.145C1384.26 286.145 1382.69 325.021 1374.76 337.282C1366.84 349.543 1368.71 337.769 1346.08 357.49C1323.46 377.209 1303.56 359.606 1303.56 359.606L1264.21 344.614L1261.87 333.283L1251.22 293.871L1258.48 259.658L1276.05 240.437L1301.65 232.748L1331.06 231.979L1356.53 241.389L1365.73 244.665Z" fill="url(#paint1_radial)"/>
<path d="M1106.53 107.159C1105.84 107.176 1104.81 107.211 1103.8 107.435C1103.29 107.556 1102.77 107.694 1102.24 108.04C1101.71 108.385 1101.04 109.144 1101.04 110.094C1101.04 111.216 1101.02 114.98 1101 116.81C1100.9 116.81 1100.9 116.81 1100.8 116.81C1100.3 116.827 1099.82 116.844 1099.34 116.931C1099.1 116.965 1098.88 117 1098.55 117.138C1098.4 117.207 1098.19 117.293 1097.95 117.518C1097.69 117.742 1097.37 118.243 1097.37 118.83C1097.35 119.106 1097.35 119.21 1097.35 119.624C1097.35 120.09 1097.33 120.729 1097.33 121.471C1097.33 122.956 1097.32 124.907 1097.3 126.84C1097.28 130.69 1097.28 134.488 1097.28 134.488C1097.28 135.386 1097.99 136.128 1098.88 136.18L1099.68 136.215L1099.55 307.339C1099.55 307.529 1099.6 307.737 1099.67 307.909C1099.67 307.909 1100.01 308.858 1100.37 309.722C1100.51 310.067 1100.64 310.309 1100.94 310.913C1101.23 311.518 1101.64 312.329 1102.12 313.278C1103.06 315.177 1104.3 317.629 1105.52 320.063C1106.73 322.48 1107.95 324.88 1108.84 326.675C1109.75 328.471 1110.35 329.662 1110.35 329.662L1113.37 329.593L1122.33 309.895L1122.21 310.119C1122.21 310.119 1122.38 309.791 1122.45 309.584C1122.52 309.394 1122.57 309.169 1122.62 308.858C1122.71 308.237 1122.79 307.305 1122.81 305.768C1122.81 305.768 1122.81 305.768 1122.81 305.751C1122.81 303.593 1123.24 212.817 1123.44 169.38C1129.43 154.981 1140.91 143.535 1165.05 143.535C1184.91 143.535 1195.77 155.171 1201.97 167.066C1208.18 178.944 1209.39 190.874 1209.39 190.874C1209.48 191.737 1210.2 192.393 1211.06 192.393H1222.52C1223.34 192.393 1224.04 191.789 1224.16 190.96C1224.16 190.96 1226 178.996 1232.61 167.066C1239.21 155.119 1250.29 143.449 1269.27 143.449C1291.81 143.449 1302.58 154.153 1308.23 167.826C1313.87 181.499 1313.97 198.246 1313.97 209.519V225.057C1313.19 225.057 1312.43 225.04 1311.61 225.057C1290.68 225.748 1267.65 231.911 1255.01 252.163C1255.01 252.18 1255.01 252.18 1255.01 252.18C1248.63 262.573 1245.64 270.791 1245.64 286.916C1245.47 289.505 1245.64 293.338 1245.64 295.807C1245.64 325.743 1258.3 343.422 1273.42 353.435C1288.53 363.449 1305.96 365.952 1315.86 366.418C1325.79 366.884 1342.49 365.779 1357.24 358.77C1371.99 351.761 1384.81 338.571 1386.1 315.592C1386.15 314.677 1385.44 313.883 1384.52 313.831C1384.5 313.814 1384.47 313.814 1384.43 313.814H1374.21C1373.32 313.814 1372.59 314.521 1372.54 315.402C1371.65 331.25 1361.8 340.573 1349.88 346.132C1337.96 351.674 1324.01 353.142 1316.02 352.779C1307.94 352.4 1293.58 350.276 1281.41 342.213C1269.54 334.358 1259.68 320.944 1259.21 297.43L1384.43 297.499C1385.36 297.499 1386.1 296.739 1386.1 295.807C1386.1 271.861 1378.58 255.011 1367.22 243.858C1356.25 233.085 1341.8 227.733 1327.32 225.92V209.537C1327.32 195.501 1327.22 175.181 1319.84 158.124C1312.46 141.066 1297.47 127.41 1268.91 127.41C1242.5 127.41 1228.64 140.289 1221.76 153.082C1218.97 158.279 1217.46 163.268 1216.43 167.602C1215.47 163.286 1214.04 158.348 1211.35 153.169C1204.69 140.41 1191.12 127.548 1164.98 127.548C1145.8 127.548 1132.69 132.969 1123.6 141.17C1123.62 138.943 1123.62 137.51 1123.62 136.267C1123.89 136.267 1124.15 136.267 1124.46 136.215C1124.68 136.18 1124.92 136.129 1125.26 135.939C1125.61 135.749 1126.22 135.197 1126.24 134.385C1126.26 134.092 1126.26 133.954 1126.26 133.522C1126.26 133.056 1126.28 132.417 1126.28 131.674C1126.28 130.19 1126.29 128.256 1126.31 126.34C1126.33 122.507 1126.33 118.726 1126.33 118.726C1126.33 117.794 1125.59 117.052 1124.66 117.052C1124.65 117.052 1124.65 117.052 1124.63 117.052C1124.63 117.052 1123.79 117.069 1122.93 117.069C1122.83 117.069 1122.76 117.069 1122.66 117.069C1122.64 116.413 1122.64 115.636 1122.64 114.807C1122.64 112.908 1122.67 110.992 1122.67 110.629V110.612C1122.67 109.179 1121.87 108.627 1120.99 108.074C1120.1 107.539 1118.92 107.176 1117.47 107.176C1115.18 107.176 1107.28 107.159 1107.28 107.159H1107.39C1107.39 107.159 1107.03 107.159 1106.68 107.159C1106.63 107.159 1106.6 107.159 1106.55 107.159H1106.53ZM1317.32 238.575C1335.88 238.575 1349.59 243.772 1358.7 252.283C1367.41 260.449 1371.91 271.775 1372.37 284.878H1259.59C1259.88 272.017 1263.25 260.726 1271.63 252.525C1280.42 243.979 1294.79 238.575 1317.32 238.575Z" fill="white"/>
</g>
<path d="M25.4664 105.823L109.365 306.586L193.576 105.823H219.198V333.302H199.981V234.249L201.544 132.696L116.864 333.302H102.022L17.6546 133.477L19.217 233.624V333.302H0V105.823H25.4664Z" fill="#009FFF"/>
<path d="M337.937 336.427C323.564 336.427 310.544 332.886 298.879 325.803C287.317 318.72 278.308 308.878 271.85 296.275C265.392 283.567 262.163 269.35 262.163 253.622V246.904C262.163 230.656 265.288 216.022 271.537 203.002C277.891 189.982 286.692 179.775 297.941 172.38C309.19 164.881 321.376 161.131 334.5 161.131C355.019 161.131 371.268 168.161 383.246 182.223C395.328 196.18 401.369 215.293 401.369 239.561V250.029H280.755V253.622C280.755 272.787 286.224 288.775 297.16 301.587C308.201 314.294 322.054 320.647 338.719 320.647C348.718 320.647 357.519 318.825 365.122 315.179C372.83 311.534 379.809 305.701 386.058 297.681L397.776 306.586C384.027 326.48 364.081 336.427 337.937 336.427ZM334.5 177.067C320.439 177.067 308.565 182.223 298.879 192.534C289.296 202.846 283.463 216.699 281.38 234.093H382.777V232.062C382.256 215.813 377.621 202.585 368.872 192.378C360.123 182.171 348.666 177.067 334.5 177.067Z" fill="#009FFF"/>
<path d="M454.802 164.256L455.427 191.753C461.676 181.546 469.488 173.89 478.862 168.786C488.236 163.683 498.652 161.131 510.109 161.131C536.773 161.131 553.699 172.067 560.886 193.94C566.927 183.42 574.999 175.348 585.102 169.724C595.205 163.995 606.35 161.131 618.536 161.131C654.783 161.131 673.271 180.921 674 220.5V333.302H655.252V221.906C655.148 206.804 651.867 195.607 645.409 188.316C639.055 181.025 628.64 177.379 614.162 177.379C600.726 177.588 589.373 181.962 580.103 190.503C570.833 198.94 565.677 209.251 564.635 221.438V333.302H545.887V220.5C545.783 206.023 542.346 195.242 535.575 188.16C528.909 180.973 518.598 177.379 504.641 177.379C492.871 177.379 482.768 180.764 474.331 187.535C465.894 194.201 459.645 204.148 455.583 217.376V333.302H436.835V164.256H454.802Z" fill="#009FFF"/>
<path d="M711.184 246.279C711.184 230.031 714.309 215.397 720.558 202.377C726.912 189.357 735.817 179.254 747.275 172.067C758.836 164.776 771.908 161.131 786.49 161.131C808.988 161.131 827.215 169.047 841.172 184.879C855.129 200.606 862.108 221.49 862.108 247.529V251.435C862.108 267.788 858.931 282.526 852.577 295.65C846.328 308.669 837.475 318.72 826.017 325.803C814.56 332.886 801.488 336.427 786.802 336.427C764.408 336.427 746.181 328.563 732.12 312.836C718.163 297.004 711.184 276.068 711.184 250.029V246.279ZM729.932 251.435C729.932 271.641 735.14 288.255 745.556 301.274C756.076 314.19 769.825 320.647 786.802 320.647C803.676 320.647 817.32 314.19 827.736 301.274C838.256 288.255 843.516 271.121 843.516 249.873V246.279C843.516 233.364 841.12 221.542 836.329 210.814C831.538 200.086 824.82 191.805 816.174 185.972C807.529 180.035 797.635 177.067 786.49 177.067C769.825 177.067 756.232 183.629 745.712 196.753C735.192 209.772 729.932 226.854 729.932 247.998V251.435Z" fill="#009FFF"/>
<path d="M978.972 180.192C975.014 179.463 970.796 179.098 966.317 179.098C954.651 179.098 944.756 182.379 936.632 188.941C928.612 195.399 922.883 204.825 919.446 217.219V333.302H900.854V164.256H919.134L919.446 191.128C929.341 171.13 945.225 161.131 967.098 161.131C972.306 161.131 976.42 161.808 979.441 163.162L978.972 180.192Z" fill="#009FFF"/>
<defs>
<linearGradient id="paint0_linear" x1="1141.23" y1="167.705" x2="1256.36" y2="440.287" gradientUnits="userSpaceOnUse">
<stop/>
<stop offset="1" stop-color="white" stop-opacity="0"/>
</linearGradient>
<radialGradient id="paint1_radial" cx="0" cy="0" r="1" gradientUnits="userSpaceOnUse" gradientTransform="translate(1280.14 258.506) rotate(90.5415) scale(130.09 143.297)">
<stop/>
<stop offset="1" stop-opacity="0"/>
</radialGradient>
<clipPath id="clip0">
<rect width="519.952" height="444.403" fill="white" transform="translate(980.048)"/>
</clipPath>
</defs>
</svg>
